#!OML:ASF H:\LiuWeirdWalks\Patient Classification 1\Patient 1\Session 1\male.ASF
:FULLY-SPECIFIED
:DEGREES
444
root -0.851948 18.3243 -12.7564 10.3171 -1.66204 3.81237
lowerback 14.1573 -1.64459 5.53743
upperback 3.42797 -1.06141 6.02386
thorax -4.29205 -0.558883 3.42502
lowerneck -15.6703 3.4184 10.3917
upperneck 4.19588 4.21008 -18.8718
head 4.54 1.20471 -7.3741
rclavicle -3.73715e-014 -1.59028e-014
rhumerus -30.0415 -35.6202 -7.4416
rradius 31.1998
rwrist -4.20142
rhand -20.6749 -1.14187
rfingers 7.12502
rthumb 5.68825 -31.0455
lclavicle -3.73715e-014 -1.59028e-014
lhumerus -21.0426 32.1979 26.6494
lradius 34.42
lwrist 11.5718
lhand -21.7467 0.262463
lfingers 7.12502
lthumb 4.65339 30.1914
rfemur -20.9561 -0.605975 14.6439
rtibia 32.3394
rfoot -13.2824 -8.1311
rtoes -7.52093
lfemur -15.4283 6.12953 -13.5903
ltibia 48.6485
lfoot -3.23199 5.91434
ltoes -17.4997
445
root -0.877102 18.323 -12.7057 10.2108 -1.71667 3.69061
lowerback 14.2832 -1.74429 5.31283
upperback 3.45125 -1.23218 5.68183
thorax -4.33617 -0.641725 3.22005
lowerneck -15.6915 3.48187 10.4081
upperneck 4.21923 4.25516 -18.4561
head 4.5412 1.24805 -7.23175
rclavicle -3.18055e-015 -1.59028e-014
rhumerus -29.8033 -35.2989 -7.06589
rradius 31.2872
rwrist -4.27293
rhand -20.6344 -1.13896
rfingers 7.12502
rthumb 5.7273 -31.0416
lclavicle -3.18055e-015 -1.59028e-014
lhumerus -21.2092 32.3218 27.333
lradius 34.3568
lwrist 11.5298
lhand -21.7428 0.246208
lfingers 7.12502
lthumb 4.6571 30.175
rfemur -20.6903 -0.518943 14.9015
rtibia 32.396
rfoot -13.3358 -8.29787
rtoes -7.5221
lfemur -16.1516 6.45082 -13.3245
ltibia 48.6486
lfoot -3.67778 6.08145
ltoes -17.3748
446
root -0.900617 18.3213 -12.6541 10.0984 -1.78054 3.54997
lowerback 14.4103 -1.84612 5.11275
upperback 3.46956 -1.40243 5.34205
thorax -4.38737 -0.724536 3.00493
lowerneck -15.6377 3.53742 10.4371
upperneck 4.20778 4.28866 -18.0533
head 4.51849 1.28989 -7.09685
rclavicle 1.35174e-014 -3.33958e-014
rhumerus -29.522 -35.001 -6.75648
rradius 31.3726
rwrist -4.37332
rhand -20.6352 -1.19624
rfingers 7.12502
rthumb 5.72661 -31.0989
lclavicle 1.35174e-014 -3.33958e-014
lhumerus -21.4148 32.4389 27.9831
lradius 34.3147
lwrist 11.5141
lhand -21.7538 0.25125
lfingers 7.12502
lthumb 4.64646 30.1803
rfemur -20.4096 -0.434313 15.1686
rtibia 32.438
rfoot -13.3932 -8.42917
rtoes -7.52465
lfemur -16.8457 6.77083 -13.0417
ltibia 48.5761
lfoot -4.0935 6.24781
ltoes -17.3105
447
root -0.922151 18.3194 -12.6019 9.98299 -1.84871 3.40145
lowerback 14.5231 -1.95086 4.93448
upperback 3.49497 -1.57601 5.00016
thorax -4.42468 -0.808958 2.77619
lowerneck -15.5714 3.5934 10.4631
upperneck 4.17579 4.32188 -17.6508
head 4.48752 1.33256 -6.96184
rclavicle 2.38542e-015 -4.13472e-014
rhumerus -29.1973 -34.7743 -6.49962
rradius 31.4345
rwrist -4.47452
rhand -20.6446 -1.25849
rfingers 7.12502
rthumb 5.71749 -31.1614
lclavicle 2.38542e-015 -4.13472e-014
lhumerus -21.6395 32.5701 28.6114
lradius 34.2936
lwrist 11.5119
lhand -21.7594 0.275211
lfingers 7.12502
lthumb 4.64109 30.2044
rfemur -20.1152 -0.378147 15.4357
rtibia 32.4637
rfoot -13.4433 -8.52
rtoes -7.56593
lfemur -17.5122 7.08399 -12.756
ltibia 48.4319
lfoot -4.47228 6.41354
ltoes -17.2973
448
root -0.941679 18.3175 -12.5491 9.86151 -1.92403 3.24529
lowerback 14.6291 -2.05454 4.77859
upperback 3.52452 -1.74629 4.65901
thorax -4.45553 -0.891832 2.53565
lowerneck -15.5384 3.65055 10.4607
upperneck 4.20603 4.36541 -17.221
head 4.48065 1.37805 -6.81319
rclavicle -1.51076e-014 -9.54166e-015
rhumerus -28.8442 -34.6005 -6.27274
rradius 31.473
rwrist -4.53362
rhand -20.6351 -1.30439
rfingers 7.12502
rthumb 5.72664 -31.207
lclavicle -1.51076e-014 -9.54166e-015
lhumerus -21.8781 32.7016 29.227
lradius 34.2852
lwrist 11.5063
lhand -21.7652 0.306547
lfingers 7.12502
lthumb 4.63547 30.2358
rfemur -19.8058 -0.35136 15.705
rtibia 32.4734
rfoot -13.4859 -8.5821
rtoes -7.63817
lfemur -18.1469 7.38209 -12.468
ltibia 48.2195
lfoot -4.81562 6.58093
ltoes -17.3586
449
root -0.959605 18.3153 -12.496 9.74528 -1.99722 3.07426
lowerback 14.7193 -2.15835 4.64745
upperback 3.56397 -1.91525 4.32106
thorax -4.46907 -0.974038 2.28431
lowerneck -15.5766 3.70204 10.4135
upperneck 4.30818 4.4089 -16.7476
head 4.50461 1.42031 -6.6437
rclavicle 1.59028e-015 3.02153e-014
rhumerus -28.468 -34.468 -6.08268
rradius 31.5045
rwrist -4.58156
rhand -20.5966 -1.35277
rfingers 7.12502
rthumb 5.76382 -31.2544
lclavicle 1.59028e-015 3.02153e-014
lhumerus -22.109 32.8474 29.8401
lradius 34.2869
lwrist 11.4714
lhand -21.7762 0.314708
lfingers 7.12502
lthumb 4.62489 30.2442
rfemur -19.4917 -0.345619 15.9886
rtibia 32.4679
rfoot -13.5285 -8.63944
rtoes -7.70405
lfemur -18.7644 7.65833 -12.1674
ltibia 47.9415
lfoot -5.12405 6.74382
ltoes -17.5413
